<svg width="287" height="112" viewBox="0 0 287 112" fill="none" xmlns="http://www.w3.org/2000/svg">
<g clip-path="url(#clip0)">
<rect width="287" height="112" fill="#F1F1F1"/>
<path d="M60.192 139.432C50.496 139.432 41.712 137.224 33.84 132.808C25.968 128.392 19.776 122.344 15.264 114.664C10.752 106.888 8.496 98.2 8.496 88.6C8.496 79 10.752 70.36 15.264 62.68C19.776 54.904 25.968 48.808 33.84 44.392C41.712 39.976 50.496 37.768 60.192 37.768C67.008 37.768 73.344 38.872 79.2 41.08C85.152 43.192 90.24 46.36 94.464 50.584L92.736 52.6C84.288 44.536 73.44 40.504 60.192 40.504C51.072 40.504 42.768 42.616 35.28 46.84C27.888 51.064 22.032 56.872 17.712 64.264C13.488 71.56 11.376 79.672 11.376 88.6C11.376 97.528 13.488 105.688 17.712 113.08C22.032 120.376 27.888 126.136 35.28 130.36C42.768 134.584 51.072 136.696 60.192 136.696C73.344 136.696 84.192 132.616 92.736 124.456L94.464 126.472C90.24 130.696 85.152 133.912 79.2 136.12C73.248 138.328 66.912 139.432 60.192 139.432ZM121.527 38.2H124.407V136.264H184.455V139H121.527V38.2ZM258.914 87.304C275.81 89.608 284.258 98.056 284.258 112.648C284.258 121.192 281.186 127.72 275.042 132.232C268.994 136.744 259.922 139 247.826 139H205.058V38.2H244.946C255.506 38.2 263.762 40.408 269.714 44.824C275.762 49.144 278.786 55.432 278.786 63.688C278.786 70.024 277.01 75.208 273.458 79.24C270.002 83.176 265.154 85.864 258.914 87.304ZM207.938 40.936V86.44H245.522C255.218 86.44 262.706 84.52 267.986 80.68C273.266 76.744 275.906 71.08 275.906 63.688C275.906 56.296 273.266 50.68 267.986 46.84C262.706 42.904 255.218 40.936 245.522 40.936H207.938ZM248.402 136.264C270.386 136.264 281.378 128.392 281.378 112.648C281.378 104.68 278.594 98.776 273.026 94.936C267.554 91.096 259.346 89.176 248.402 89.176H207.938V136.264H248.402Z" transform="translate(-3 -33)" fill="#2A3538"/>
<rect width="180" height="25" transform="translate(70 43)" fill="#F1F1F1"/>
<path d="M5.852 14.056C4.9 14.056 4.03667 13.8413 3.262 13.412C2.49667 12.9827 1.89467 12.39 1.456 11.634C1.01733 10.878 0.798 10.0333 0.798 9.1C0.798 8.16667 1.01733 7.322 1.456 6.566C1.89467 5.81 2.49667 5.21733 3.262 4.788C4.03667 4.35867 4.9 4.144 5.852 4.144C6.524 4.144 7.154 4.256 7.742 4.48C8.33 4.69467 8.834 5.01667 9.254 5.446L8.96 5.754C8.148 4.97 7.11667 4.578 5.866 4.578C5.00733 4.578 4.228 4.77867 3.528 5.18C2.828 5.572 2.27733 6.11333 1.876 6.804C1.47467 7.49467 1.274 8.26 1.274 9.1C1.274 9.94 1.47467 10.7053 1.876 11.396C2.27733 12.0867 2.828 12.6327 3.528 13.034C4.228 13.426 5.00733 13.622 5.866 13.622C7.10733 13.622 8.13867 13.2253 8.96 12.432L9.254 12.74C8.834 13.1693 8.33 13.496 7.742 13.72C7.16333 13.944 6.53333 14.056 5.852 14.056ZM12.4725 4.2H12.9485V13.566H18.6885V14H12.4725V4.2ZM27.3406 11.13H21.4746L20.1586 14H19.6406L24.1766 4.2H24.6386L29.1746 14H28.6566L27.3406 11.13ZM27.1586 10.724L24.4146 4.746L21.6566 10.724H27.1586ZM31.7826 4.2H32.2586V14H31.7826V4.2ZM43.4312 14L41.0092 10.626C40.6918 10.682 40.3372 10.71 39.9452 10.71H37.0192V14H36.5432V4.2H39.9452C41.1678 4.2 42.1198 4.48933 42.8012 5.068C43.4918 5.63733 43.8372 6.43067 43.8372 7.448C43.8372 8.232 43.6318 8.89 43.2212 9.422C42.8198 9.94467 42.2412 10.3087 41.4852 10.514L43.9912 14H43.4312ZM39.9732 10.276C41.0652 10.276 41.9052 10.0333 42.4932 9.548C43.0812 9.05333 43.3752 8.35333 43.3752 7.448C43.3752 6.552 43.0812 5.86133 42.4932 5.376C41.9052 4.88133 41.0652 4.634 39.9732 4.634H37.0192V10.276H39.9732ZM53.914 13.566V14H47.292V4.2H53.718V4.634H47.768V8.806H53.088V9.24H47.768V13.566H53.914ZM61.5846 4.2H62.0606V13.566H67.8006V14H61.5846V4.2ZM76.4527 11.13H70.5867L69.2707 14H68.7527L73.2887 4.2H73.7507L78.2867 14H77.7687L76.4527 11.13ZM76.2707 10.724L73.5267 4.746L70.7687 10.724H76.2707ZM87.7827 14L85.3607 10.626C85.0434 10.682 84.6887 10.71 84.2967 10.71H81.3707V14H80.8947V4.2H84.2967C85.5194 4.2 86.4714 4.48933 87.1527 5.068C87.8434 5.63733 88.1887 6.43067 88.1887 7.448C88.1887 8.232 87.9834 8.89 87.5727 9.422C87.1714 9.94467 86.5927 10.3087 85.8367 10.514L88.3427 14H87.7827ZM84.3247 10.276C85.4167 10.276 86.2567 10.0333 86.8447 9.548C87.4327 9.05333 87.7267 8.35333 87.7267 7.448C87.7267 6.552 87.4327 5.86133 86.8447 5.376C86.2567 4.88133 85.4167 4.634 84.3247 4.634H81.3707V10.276H84.3247ZM98.2656 13.566V14H91.6436V4.2H98.0696V4.634H92.1196V8.806H97.4396V9.24H92.1196V13.566H98.2656ZM108.317 13.566V14H101.695V4.2H108.121V4.634H102.171V8.806H107.491V9.24H102.171V13.566H108.317ZM121.49 8.96C122.255 9.08133 122.834 9.352 123.226 9.772C123.618 10.1827 123.814 10.7333 123.814 11.424C123.814 12.264 123.515 12.9033 122.918 13.342C122.32 13.7807 121.429 14 120.244 14H115.988V4.2H119.964C121 4.2 121.812 4.41467 122.4 4.844C122.988 5.27333 123.282 5.88933 123.282 6.692C123.282 7.28 123.123 7.76533 122.806 8.148C122.488 8.53067 122.05 8.80133 121.49 8.96ZM116.464 4.62V8.82H119.978C120.883 8.82 121.583 8.64267 122.078 8.288C122.572 7.924 122.82 7.40133 122.82 6.72C122.82 6.03867 122.572 5.52067 122.078 5.166C121.583 4.802 120.883 4.62 119.978 4.62H116.464ZM120.272 13.58C121.289 13.58 122.054 13.4027 122.568 13.048C123.081 12.6933 123.338 12.1473 123.338 11.41C123.338 10.6633 123.081 10.1127 122.568 9.758C122.054 9.40333 121.289 9.226 120.272 9.226H116.464V13.58H120.272ZM133.81 13.566V14H127.188V4.2H133.614V4.634H127.664V8.806H132.984V9.24H127.664V13.566H133.81ZM144.255 9.17H144.703V12.796C144.274 13.2067 143.76 13.5193 143.163 13.734C142.575 13.9487 141.945 14.056 141.273 14.056C140.312 14.056 139.444 13.8413 138.669 13.412C137.894 12.9827 137.283 12.39 136.835 11.634C136.396 10.878 136.177 10.0333 136.177 9.1C136.177 8.16667 136.396 7.322 136.835 6.566C137.283 5.81 137.894 5.21733 138.669 4.788C139.444 4.35867 140.312 4.144 141.273 4.144C141.973 4.144 142.617 4.25133 143.205 4.466C143.793 4.68067 144.297 5.00267 144.717 5.432L144.437 5.754C143.625 4.97 142.575 4.578 141.287 4.578C140.41 4.578 139.616 4.77867 138.907 5.18C138.207 5.572 137.656 6.11333 137.255 6.804C136.854 7.49467 136.653 8.26 136.653 9.1C136.653 9.94 136.854 10.7053 137.255 11.396C137.656 12.0867 138.207 12.6327 138.907 13.034C139.616 13.426 140.41 13.622 141.287 13.622C142.51 13.622 143.499 13.2813 144.255 12.6V9.17ZM155.797 9.17H156.245V12.796C155.815 13.2067 155.302 13.5193 154.705 13.734C154.117 13.9487 153.487 14.056 152.815 14.056C151.853 14.056 150.985 13.8413 150.211 13.412C149.436 12.9827 148.825 12.39 148.377 11.634C147.938 10.878 147.719 10.0333 147.719 9.1C147.719 8.16667 147.938 7.322 148.377 6.566C148.825 5.81 149.436 5.21733 150.211 4.788C150.985 4.35867 151.853 4.144 152.815 4.144C153.515 4.144 154.159 4.25133 154.747 4.466C155.335 4.68067 155.839 5.00267 156.259 5.432L155.979 5.754C155.167 4.97 154.117 4.578 152.829 4.578C151.951 4.578 151.158 4.77867 150.449 5.18C149.749 5.572 149.198 6.11333 148.797 6.804C148.395 7.49467 148.195 8.26 148.195 9.1C148.195 9.94 148.395 10.7053 148.797 11.396C149.198 12.0867 149.749 12.6327 150.449 13.034C151.158 13.426 151.951 13.622 152.829 13.622C154.051 13.622 155.041 13.2813 155.797 12.6V9.17ZM162.732 14.056C162.023 14.056 161.346 13.93 160.702 13.678C160.068 13.426 159.578 13.0993 159.232 12.698L159.484 12.362C159.811 12.7353 160.264 13.0433 160.842 13.286C161.43 13.5193 162.056 13.636 162.718 13.636C163.698 13.636 164.436 13.4447 164.93 13.062C165.434 12.67 165.686 12.1707 165.686 11.564C165.686 11.0973 165.556 10.724 165.294 10.444C165.033 10.1547 164.711 9.94 164.328 9.8C163.946 9.65067 163.423 9.49667 162.76 9.338C162.051 9.16067 161.482 8.988 161.052 8.82C160.623 8.652 160.259 8.39533 159.96 8.05C159.662 7.70467 159.512 7.24267 159.512 6.664C159.512 6.20667 159.634 5.78667 159.876 5.404C160.119 5.02133 160.488 4.718 160.982 4.494C161.486 4.26067 162.112 4.144 162.858 4.144C163.39 4.144 163.913 4.22333 164.426 4.382C164.949 4.54067 165.392 4.76 165.756 5.04L165.546 5.418C165.164 5.138 164.734 4.928 164.258 4.788C163.792 4.63867 163.33 4.564 162.872 4.564C161.92 4.564 161.197 4.76467 160.702 5.166C160.217 5.558 159.974 6.05733 159.974 6.664C159.974 7.14 160.105 7.52267 160.366 7.812C160.637 8.092 160.964 8.30667 161.346 8.456C161.738 8.60533 162.261 8.75933 162.914 8.918C163.624 9.09533 164.193 9.268 164.622 9.436C165.052 9.59467 165.411 9.84667 165.7 10.192C165.999 10.528 166.148 10.9807 166.148 11.55C166.148 12.0073 166.022 12.4273 165.77 12.81C165.528 13.1927 165.15 13.496 164.636 13.72C164.123 13.944 163.488 14.056 162.732 14.056Z" transform="translate(70 46)" fill="#2A3538"/>
</g>
<defs>
<clipPath id="clip0">
<rect width="287" height="112" fill="white"/>
</clipPath>
</defs>
</svg>
